<?xml version="1.0" standalone="no"?>
<!DOCTYPE svg PUBLIC "-//W3C//DTD SVG 20010904//EN"
        "http://www.w3.org/TR/2001/REC-SVG-20010904/DTD/svg10.dtd">
<svg version="1.0" xmlns="http://www.w3.org/2000/svg"
     width="757.000000pt" height="716.000000pt" viewBox="0 0 757.000000 716.000000"
     preserveAspectRatio="xMidYMid meet">
    <metadata>
        Created by potrace 1.16, written by Peter Selinger 2001-2019
    </metadata>
    <g transform="translate(0.000000,716.000000) scale(0.100000,-0.100000)"
       fill="#5e5ee6" stroke="none">
        <path d="M395 7066 c-49 -21 -129 -100 -160 -157 -26 -48 -29 -63 -28 -140 0
-48 6 -104 13 -125 12 -36 70 -120 95 -136 5 -3 21 -15 34 -27 40 -35 86 -44
201 -39 125 5 151 17 229 105 56 63 71 109 71 219 0 111 -16 151 -84 220 -77
76 -124 94 -250 94 -53 -1 -104 -6 -121 -14z"/>
        <path d="M1673 7061 c-58 -27 -139 -110 -164 -168 -18 -40 -20 -64 -17 -148 3
-87 7 -106 30 -146 34 -58 98 -116 156 -141 39 -18 61 -20 151 -16 70 3 116
10 136 20 43 23 97 75 131 127 28 43 29 50 29 160 0 64 -4 129 -8 145 -10 37
-101 133 -152 159 -59 31 -233 36 -292 8z"/>
        <path d="M2932 7048 c-64 -37 -135 -123 -152 -184 -19 -66 -8 -203 20 -256 30
-57 97 -123 151 -148 52 -23 211 -27 270 -6 56 20 135 92 164 149 22 45 25 64
25 157 0 94 -3 112 -26 158 -31 62 -118 136 -180 151 -24 6 -82 11 -131 11
-80 0 -93 -3 -141 -32z"/>
        <path d="M4235 7061 c-55 -25 -127 -97 -156 -157 -20 -41 -24 -64 -24 -144 0
-84 3 -102 28 -152 31 -64 90 -120 156 -150 62 -28 236 -23 297 9 57 30 131
115 145 166 17 64 13 225 -6 271 -26 63 -113 142 -175 160 -76 23 -213 21
-265 -3z"/>
        <path d="M5532 7069 c-46 -13 -165 -134 -183 -185 -19 -53 -17 -208 4 -256 23
-55 65 -104 126 -146 l53 -37 122 0 c139 0 170 11 242 87 68 71 78 98 78 223
1 95 -2 116 -22 157 -33 67 -108 133 -173 152 -58 18 -194 20 -247 5z"/>
        <path d="M6805 7066 c-49 -21 -129 -100 -160 -157 -26 -48 -29 -63 -28 -140 0
-48 6 -104 13 -125 12 -36 70 -120 95 -136 5 -3 21 -15 34 -27 40 -35 86 -44
201 -39 125 5 151 17 229 105 56 63 71 109 71 219 0 111 -16 151 -84 220 -77
76 -124 94 -250 94 -53 -1 -104 -6 -121 -14z"/>
        <path d="M407 5786 c-68 -25 -141 -95 -180 -172 -30 -59 -26 -228 7 -292 23
-45 100 -117 150 -142 42 -20 58 -22 159 -18 127 4 151 13 219 81 71 70 83
104 83 237 0 98 -3 121 -22 155 -27 51 -99 119 -150 141 -52 23 -216 29 -266
10z"/>
        <path d="M1686 5785 c-55 -19 -105 -63 -151 -131 l-40 -59 0 -115 c0 -134 10
-161 82 -234 73 -72 111 -86 234 -86 124 0 166 16 234 84 66 67 78 97 83 208
7 138 -6 178 -82 253 -46 46 -74 65 -115 78 -64 21 -190 22 -245 2z"/>
        <path d="M2950 5778 c-61 -31 -128 -102 -158 -166 -22 -48 -24 -63 -19 -140 3
-48 10 -104 16 -124 16 -51 92 -132 153 -162 46 -23 64 -26 153 -26 88 0 108
3 152 25 50 25 100 72 138 130 16 24 20 51 23 145 4 136 -9 179 -79 249 -65
65 -115 84 -234 88 -89 4 -105 2 -145 -19z"/>
        <path d="M4235 5776 c-61 -28 -127 -92 -155 -152 -43 -87 -35 -244 15 -325 30
-46 104 -110 148 -126 42 -15 209 -16 260 -1 53 16 142 98 168 156 27 60 29
242 5 294 -19 39 -68 94 -116 129 -74 54 -237 67 -325 25z"/>
        <path d="M5515 5777 c-94 -45 -169 -151 -182 -257 -7 -64 12 -164 42 -216 25
-42 85 -97 139 -126 36 -20 206 -25 268 -7 54 14 152 108 175 167 24 62 23
229 -1 285 -21 48 -107 134 -154 154 -22 10 -77 18 -137 20 -90 4 -105 2 -150
-20z"/>
        <path d="M6817 5786 c-68 -25 -141 -95 -180 -172 -30 -59 -26 -228 7 -292 23
-45 100 -117 150 -142 42 -20 58 -22 159 -18 127 4 151 13 219 81 71 70 83
104 83 237 0 98 -3 121 -22 155 -26 51 -102 121 -151 142 -51 22 -216 28 -265
9z"/>
        <path d="M421 4509 c-69 -21 -152 -94 -190 -166 -38 -73 -31 -242 13 -317 30
-51 88 -103 141 -127 30 -14 65 -19 144 -19 122 0 167 16 237 85 71 71 79 93
79 230 0 110 -2 123 -25 160 -36 59 -103 123 -146 141 -46 19 -206 28 -253 13z"/>
        <path d="M1701 4509 c-58 -18 -119 -67 -163 -132 l-43 -62 0 -115 c0 -134 12
-168 84 -238 73 -71 104 -82 229 -82 130 0 162 11 231 78 69 67 84 101 89 206
7 129 -9 184 -68 249 -69 75 -119 98 -233 103 -50 2 -107 -1 -126 -7z"/>
        <path d="M2980 4509 c-67 -21 -145 -94 -186 -177 -25 -49 -26 -60 -22 -151 5
-110 25 -156 90 -218 81 -76 100 -83 226 -83 97 0 123 3 159 21 54 26 139 119
153 167 13 48 13 206 0 254 -14 49 -99 141 -156 169 -53 25 -205 36 -264 18z"/>
        <path d="M4250 4503 c-28 -10 -68 -39 -106 -77 -79 -79 -99 -134 -92 -250 7
-99 22 -136 82 -203 70 -77 110 -93 239 -93 127 0 156 10 228 77 75 69 91 113
91 239 0 79 -5 112 -20 146 -25 56 -95 126 -152 151 -62 28 -208 33 -270 10z"/>
        <path d="M5551 4509 c-75 -23 -149 -88 -193 -172 -20 -36 -23 -56 -22 -138 2
-143 47 -226 158 -290 48 -27 58 -29 161 -29 131 0 168 14 238 85 72 75 82
102 81 230 -1 130 -12 162 -81 230 -70 69 -108 85 -216 90 -50 3 -107 0 -126
-6z"/>
        <path d="M6834 4511 c-74 -19 -168 -108 -197 -187 -24 -62 -27 -99 -17 -181
15 -114 62 -183 165 -238 43 -22 59 -25 154 -25 125 0 165 15 234 82 74 74 82
95 82 233 0 98 -3 126 -19 155 -26 48 -110 129 -153 147 -42 17 -202 26 -249
14z"/>
        <path d="M439 3231 c-77 -15 -172 -96 -210 -178 -23 -50 -29 -124 -16 -206 14
-97 67 -171 162 -227 35 -22 51 -24 150 -24 77 0 121 5 146 16 50 22 115 82
147 137 25 43 27 54 27 166 0 109 -2 124 -24 160 -33 55 -98 115 -146 136 -44
19 -180 31 -236 20z"/>
        <path d="M1720 3231 c-52 -11 -91 -34 -139 -82 -69 -69 -91 -123 -91 -222 0
-122 19 -176 87 -243 63 -63 94 -79 174 -89 61 -8 187 8 222 28 40 22 108 91
130 132 19 35 22 56 22 160 0 140 -8 161 -89 241 -38 36 -66 54 -98 62 -62 16
-175 23 -218 13z"/>
        <path d="M3000 3231 c-19 -4 -46 -14 -60 -22 -52 -30 -121 -105 -146 -157 -24
-50 -26 -64 -22 -146 5 -111 26 -163 92 -228 73 -72 103 -83 226 -82 120 1
155 12 220 70 79 72 94 105 98 224 6 146 -5 179 -81 255 -42 41 -76 65 -103
73 -54 16 -179 23 -224 13z"/>
        <path d="M4281 3230 c-89 -19 -191 -116 -218 -209 -19 -66 -13 -184 12 -246
21 -49 96 -129 150 -158 34 -18 56 -21 150 -21 127 1 162 14 235 86 66 66 82
110 82 232 0 82 -4 112 -20 147 -23 51 -90 119 -147 148 -47 24 -177 35 -244
21z"/>
        <path d="M5567 3230 c-32 -6 -66 -22 -100 -49 -115 -88 -152 -184 -128 -327
15 -85 38 -130 94 -181 75 -69 97 -77 222 -76 134 0 167 13 241 89 67 69 78
104 78 234 0 87 -3 112 -21 145 -29 56 -99 124 -148 145 -51 22 -172 32 -238
20z"/>
        <path d="M6849 3231 c-77 -15 -172 -96 -210 -178 -36 -79 -28 -231 15 -306 29
-49 75 -95 130 -127 35 -21 52 -24 145 -24 133 0 170 12 237 80 83 83 89 100
89 239 0 110 -2 123 -25 160 -66 108 -139 151 -265 158 -44 3 -96 2 -116 -2z"/>
        <path d="M393 1936 c-18 -8 -43 -24 -55 -35 -12 -12 -25 -21 -30 -21 -4 0 -26
-27 -48 -60 -43 -63 -65 -144 -55 -205 2 -16 7 -48 10 -70 13 -91 106 -193
201 -221 72 -21 215 -15 265 11 47 25 107 83 136 133 35 60 44 203 18 286 -19
61 -88 141 -148 173 -44 24 -248 30 -294 9z"/>
        <path d="M1665 1930 c-59 -32 -122 -98 -152 -158 -24 -49 -25 -60 -21 -155 3
-65 10 -113 20 -132 28 -52 94 -120 144 -145 42 -22 60 -25 158 -25 131 1 164
14 237 92 67 72 83 120 77 245 -5 118 -17 147 -83 213 -69 70 -94 79 -225 83
-103 3 -119 1 -155 -18z"/>
        <path d="M2941 1927 c-54 -27 -127 -107 -154 -166 -16 -37 -19 -60 -15 -140 6
-113 20 -149 87 -218 74 -76 106 -88 236 -88 127 1 163 14 235 87 69 70 82
113 78 248 -3 105 -6 119 -31 157 -34 53 -116 119 -165 133 -20 5 -80 10 -132
10 -79 0 -103 -4 -139 -23z"/>
        <path d="M4230 1932 c-56 -27 -128 -105 -156 -169 -24 -52 -26 -66 -21 -145 7
-106 30 -162 91 -221 72 -71 104 -82 226 -81 124 0 178 19 241 85 66 69 80
106 81 217 1 128 -12 172 -70 235 -72 77 -124 97 -252 97 -79 0 -114 -5 -140
-18z"/>
        <path d="M5495 1921 c-52 -30 -92 -74 -134 -145 -21 -35 -25 -53 -25 -131 1
-132 13 -165 93 -245 61 -61 74 -69 127 -80 71 -15 195 -8 247 13 49 21 142
118 158 165 20 57 18 217 -4 274 -23 59 -117 149 -174 166 -22 7 -85 12 -139
12 -91 0 -103 -3 -149 -29z"/>
        <path d="M6803 1936 c-18 -8 -43 -24 -55 -35 -12 -12 -25 -21 -30 -21 -4 0
-26 -27 -48 -60 -49 -73 -63 -139 -51 -241 16 -121 98 -223 207 -255 76 -22
214 -15 271 14 44 23 113 94 139 143 26 52 31 202 9 274 -20 61 -86 139 -147
172 -45 24 -248 30 -295 9z"/>
        <path d="M400 657 c-45 -14 -141 -109 -170 -166 -18 -36 -22 -62 -22 -130 0
-47 5 -105 13 -129 15 -51 72 -119 138 -165 46 -32 47 -32 166 -32 143 0 173
12 252 99 57 62 73 108 73 210 0 124 -15 163 -89 237 -52 51 -76 68 -113 77
-58 15 -201 14 -248 -1z"/>
        <path d="M1655 641 c-62 -35 -113 -91 -144 -154 -21 -43 -23 -59 -19 -150 3
-89 7 -108 30 -148 30 -50 89 -108 140 -136 45 -24 245 -25 298 -1 45 21 147
127 157 164 4 16 8 81 8 145 0 111 -1 117 -29 160 -75 113 -148 149 -300 149
-82 0 -96 -3 -141 -29z"/>
        <path d="M2945 648 c-62 -33 -137 -116 -159 -177 -27 -76 -19 -198 17 -274 30
-61 91 -120 152 -148 50 -23 190 -26 258 -5 64 19 140 85 171 148 23 46 26 64
26 158 0 95 -3 112 -26 159 -30 60 -117 135 -174 151 -19 5 -78 10 -130 10
-77 -1 -103 -5 -135 -22z"/>
        <path d="M4234 653 c-60 -35 -110 -84 -144 -140 -34 -55 -35 -61 -35 -158 0
-89 3 -106 28 -157 33 -67 119 -142 182 -159 23 -7 81 -9 136 -7 112 6 161 28
224 100 54 63 66 100 67 204 0 138 -9 168 -79 245 -61 66 -104 82 -233 86 -96
3 -120 0 -146 -14z"/>
        <path d="M5490 635 c-119 -80 -167 -176 -155 -313 8 -94 33 -151 94 -209 75
-73 90 -78 226 -78 140 0 171 12 246 92 62 66 74 105 73 233 -1 122 -15 159
-86 226 -70 68 -98 78 -228 82 l-115 4 -55 -37z"/>
        <path d="M6810 657 c-44 -14 -141 -108 -170 -165 -18 -34 -22 -60 -22 -130 0
-48 5 -106 13 -130 15 -51 72 -119 138 -165 46 -32 47 -32 166 -32 143 0 173
12 252 99 57 62 73 108 73 210 0 124 -15 163 -89 237 -52 51 -76 68 -113 77
-58 15 -201 14 -248 -1z"/>
    </g>
</svg>
