<?xml version="1.0" standalone="no"?>
<!DOCTYPE svg PUBLIC "-//W3C//DTD SVG 20010904//EN"
 "http://www.w3.org/TR/2001/REC-SVG-20010904/DTD/svg10.dtd">
<svg version="1.0" xmlns="http://www.w3.org/2000/svg"
 width="1278.000000pt" height="719.000000pt" viewBox="0 0 1278.000000 719.000000"
 preserveAspectRatio="xMidYMid meet">
<metadata>
Created by potrace 1.16, written by Peter Selinger 2001-2019
</metadata>
<g transform="translate(0.000000,719.000000) scale(0.100000,-0.100000)"
fill="#5e5ee6" stroke="none">
<path d="M514 7100 c-86 -27 -181 -126 -205 -213 -17 -64 -7 -194 20 -245 28
-54 88 -115 143 -144 37 -20 58 -23 148 -23 120 0 160 15 230 85 70 70 85 110
85 230 0 120 -15 160 -85 230 -64 64 -111 83 -215 87 -49 1 -104 -2 -121 -7z"/>
<path d="M1794 7100 c-86 -27 -181 -126 -205 -213 -17 -64 -7 -194 20 -245 28
-54 88 -115 143 -144 37 -20 58 -23 148 -23 120 0 160 15 230 85 70 70 85 110
85 230 0 120 -15 160 -85 230 -64 64 -111 83 -215 87 -49 1 -104 -2 -121 -7z"/>
<path d="M3074 7100 c-86 -27 -181 -126 -205 -213 -17 -64 -7 -194 20 -245 28
-54 88 -115 143 -144 37 -20 58 -23 148 -23 120 0 160 15 230 85 70 70 85 110
85 230 0 120 -15 160 -85 230 -64 64 -111 83 -215 87 -49 1 -104 -2 -121 -7z"/>
<path d="M4354 7100 c-86 -27 -181 -126 -205 -213 -17 -64 -7 -194 20 -245 28
-54 88 -115 143 -144 37 -20 58 -23 148 -23 120 0 160 15 230 85 70 70 85 110
85 230 0 120 -15 160 -85 230 -64 64 -111 83 -215 87 -49 1 -104 -2 -121 -7z"/>
<path d="M5634 7100 c-86 -27 -181 -126 -205 -213 -17 -64 -7 -194 20 -245 28
-54 88 -115 143 -144 37 -20 58 -23 148 -23 120 0 160 15 230 85 70 70 85 110
85 230 0 120 -15 160 -85 230 -64 64 -111 83 -215 87 -49 1 -104 -2 -121 -7z"/>
<path d="M6914 7100 c-86 -27 -181 -126 -205 -213 -17 -64 -7 -194 20 -245 28
-54 88 -115 143 -144 37 -20 58 -23 148 -23 120 0 160 15 230 85 70 70 85 110
85 230 0 120 -15 160 -85 230 -64 64 -111 83 -215 87 -49 1 -104 -2 -121 -7z"/>
<path d="M8194 7100 c-86 -27 -181 -126 -205 -213 -17 -64 -7 -194 20 -245 28
-54 88 -115 143 -144 37 -20 58 -23 148 -23 120 0 160 15 230 85 70 70 85 110
85 230 0 120 -15 160 -85 230 -64 64 -111 83 -215 87 -49 1 -104 -2 -121 -7z"/>
<path d="M9474 7100 c-86 -27 -181 -126 -205 -213 -17 -64 -7 -194 20 -245 28
-54 88 -115 143 -144 37 -20 58 -23 148 -23 120 0 160 15 230 85 70 70 85 110
85 230 0 120 -15 160 -85 230 -64 64 -111 83 -215 87 -49 1 -104 -2 -121 -7z"/>
<path d="M10754 7100 c-86 -27 -181 -126 -205 -213 -17 -64 -7 -194 20 -245
28 -54 88 -115 143 -144 37 -20 58 -23 148 -23 120 0 160 15 230 85 70 70 85
110 85 230 0 120 -15 160 -85 230 -64 64 -111 83 -215 87 -49 1 -104 -2 -121
-7z"/>
<path d="M12034 7100 c-86 -27 -181 -126 -205 -213 -17 -64 -7 -194 20 -245
28 -54 88 -115 143 -144 37 -20 58 -23 148 -23 120 0 160 15 230 85 70 70 85
110 85 230 0 120 -15 160 -85 230 -64 64 -111 83 -215 87 -49 1 -104 -2 -121
-7z"/>
<path d="M514 5820 c-86 -27 -181 -126 -205 -213 -17 -64 -7 -194 20 -245 28
-54 88 -115 143 -144 37 -20 58 -23 148 -23 120 0 160 15 230 85 70 70 85 110
85 230 0 120 -15 160 -85 230 -64 64 -111 83 -215 87 -49 1 -104 -2 -121 -7z"/>
<path d="M1794 5820 c-86 -27 -181 -126 -205 -213 -17 -64 -7 -194 20 -245 28
-54 88 -115 143 -144 37 -20 58 -23 148 -23 120 0 160 15 230 85 70 70 85 110
85 230 0 120 -15 160 -85 230 -64 64 -111 83 -215 87 -49 1 -104 -2 -121 -7z"/>
<path d="M3074 5820 c-86 -27 -181 -126 -205 -213 -17 -64 -7 -194 20 -245 28
-54 88 -115 143 -144 37 -20 58 -23 148 -23 120 0 160 15 230 85 70 70 85 110
85 230 0 120 -15 160 -85 230 -64 64 -111 83 -215 87 -49 1 -104 -2 -121 -7z"/>
<path d="M4354 5820 c-86 -27 -181 -126 -205 -213 -17 -64 -7 -194 20 -245 28
-54 88 -115 143 -144 37 -20 58 -23 148 -23 120 0 160 15 230 85 70 70 85 110
85 230 0 120 -15 160 -85 230 -64 64 -111 83 -215 87 -49 1 -104 -2 -121 -7z"/>
<path d="M5634 5820 c-86 -27 -181 -126 -205 -213 -17 -64 -7 -194 20 -245 28
-54 88 -115 143 -144 37 -20 58 -23 148 -23 120 0 160 15 230 85 70 70 85 110
85 230 0 120 -15 160 -85 230 -64 64 -111 83 -215 87 -49 1 -104 -2 -121 -7z"/>
<path d="M6914 5820 c-86 -27 -181 -126 -205 -213 -17 -64 -7 -194 20 -245 28
-54 88 -115 143 -144 37 -20 58 -23 148 -23 120 0 160 15 230 85 70 70 85 110
85 230 0 120 -15 160 -85 230 -64 64 -111 83 -215 87 -49 1 -104 -2 -121 -7z"/>
<path d="M8194 5820 c-86 -27 -181 -126 -205 -213 -17 -64 -7 -194 20 -245 28
-54 88 -115 143 -144 37 -20 58 -23 148 -23 120 0 160 15 230 85 70 70 85 110
85 230 0 120 -15 160 -85 230 -64 64 -111 83 -215 87 -49 1 -104 -2 -121 -7z"/>
<path d="M9474 5820 c-86 -27 -181 -126 -205 -213 -17 -64 -7 -194 20 -245 28
-54 88 -115 143 -144 37 -20 58 -23 148 -23 120 0 160 15 230 85 70 70 85 110
85 230 0 120 -15 160 -85 230 -64 64 -111 83 -215 87 -49 1 -104 -2 -121 -7z"/>
<path d="M10754 5820 c-86 -27 -181 -126 -205 -213 -17 -64 -7 -194 20 -245
28 -54 88 -115 143 -144 37 -20 58 -23 148 -23 120 0 160 15 230 85 70 70 85
110 85 230 0 120 -15 160 -85 230 -64 64 -111 83 -215 87 -49 1 -104 -2 -121
-7z"/>
<path d="M12034 5820 c-86 -27 -181 -126 -205 -213 -17 -64 -7 -194 20 -245
28 -54 88 -115 143 -144 37 -20 58 -23 148 -23 120 0 160 15 230 85 70 70 85
110 85 230 0 120 -15 160 -85 230 -64 64 -111 83 -215 87 -49 1 -104 -2 -121
-7z"/>
<path d="M514 4540 c-86 -27 -181 -126 -205 -213 -17 -64 -7 -194 20 -245 28
-54 88 -115 143 -144 37 -20 58 -23 148 -23 120 0 160 15 230 85 70 70 85 110
85 230 0 120 -15 160 -85 230 -64 64 -111 83 -215 87 -49 1 -104 -2 -121 -7z"/>
<path d="M1794 4540 c-86 -27 -181 -126 -205 -213 -17 -64 -7 -194 20 -245 28
-54 88 -115 143 -144 37 -20 58 -23 148 -23 120 0 160 15 230 85 70 70 85 110
85 230 0 120 -15 160 -85 230 -64 64 -111 83 -215 87 -49 1 -104 -2 -121 -7z"/>
<path d="M3074 4540 c-86 -27 -181 -126 -205 -213 -17 -64 -7 -194 20 -245 28
-54 88 -115 143 -144 37 -20 58 -23 148 -23 120 0 160 15 230 85 70 70 85 110
85 230 0 120 -15 160 -85 230 -64 64 -111 83 -215 87 -49 1 -104 -2 -121 -7z"/>
<path d="M4354 4540 c-86 -27 -181 -126 -205 -213 -17 -64 -7 -194 20 -245 28
-54 88 -115 143 -144 37 -20 58 -23 148 -23 120 0 160 15 230 85 70 70 85 110
85 230 0 120 -15 160 -85 230 -64 64 -111 83 -215 87 -49 1 -104 -2 -121 -7z"/>
<path d="M5634 4540 c-86 -27 -181 -126 -205 -213 -17 -64 -7 -194 20 -245 28
-54 88 -115 143 -144 37 -20 58 -23 148 -23 120 0 160 15 230 85 70 70 85 110
85 230 0 120 -15 160 -85 230 -64 64 -111 83 -215 87 -49 1 -104 -2 -121 -7z"/>
<path d="M6914 4540 c-86 -27 -181 -126 -205 -213 -17 -64 -7 -194 20 -245 28
-54 88 -115 143 -144 37 -20 58 -23 148 -23 120 0 160 15 230 85 70 70 85 110
85 230 0 120 -15 160 -85 230 -64 64 -111 83 -215 87 -49 1 -104 -2 -121 -7z"/>
<path d="M8194 4540 c-86 -27 -181 -126 -205 -213 -17 -64 -7 -194 20 -245 28
-54 88 -115 143 -144 37 -20 58 -23 148 -23 120 0 160 15 230 85 70 70 85 110
85 230 0 120 -15 160 -85 230 -64 64 -111 83 -215 87 -49 1 -104 -2 -121 -7z"/>
<path d="M9474 4540 c-86 -27 -181 -126 -205 -213 -17 -64 -7 -194 20 -245 28
-54 88 -115 143 -144 37 -20 58 -23 148 -23 120 0 160 15 230 85 70 70 85 110
85 230 0 120 -15 160 -85 230 -64 64 -111 83 -215 87 -49 1 -104 -2 -121 -7z"/>
<path d="M10754 4540 c-86 -27 -181 -126 -205 -213 -17 -64 -7 -194 20 -245
28 -54 88 -115 143 -144 37 -20 58 -23 148 -23 120 0 160 15 230 85 70 70 85
110 85 230 0 120 -15 160 -85 230 -64 64 -111 83 -215 87 -49 1 -104 -2 -121
-7z"/>
<path d="M12034 4540 c-86 -27 -181 -126 -205 -213 -17 -64 -7 -194 20 -245
28 -54 88 -115 143 -144 37 -20 58 -23 148 -23 120 0 160 15 230 85 70 70 85
110 85 230 0 120 -15 160 -85 230 -64 64 -111 83 -215 87 -49 1 -104 -2 -121
-7z"/>
<path d="M514 3260 c-86 -27 -181 -126 -205 -213 -17 -64 -7 -194 20 -245 28
-54 88 -115 143 -144 37 -20 58 -23 148 -23 120 0 160 15 230 85 70 70 85 110
85 230 0 120 -15 160 -85 230 -64 64 -111 83 -215 87 -49 1 -104 -2 -121 -7z"/>
<path d="M1794 3260 c-86 -27 -181 -126 -205 -213 -17 -64 -7 -194 20 -245 28
-54 88 -115 143 -144 37 -20 58 -23 148 -23 120 0 160 15 230 85 70 70 85 110
85 230 0 120 -15 160 -85 230 -64 64 -111 83 -215 87 -49 1 -104 -2 -121 -7z"/>
<path d="M3074 3260 c-86 -27 -181 -126 -205 -213 -17 -64 -7 -194 20 -245 28
-54 88 -115 143 -144 37 -20 58 -23 148 -23 120 0 160 15 230 85 70 70 85 110
85 230 0 120 -15 160 -85 230 -64 64 -111 83 -215 87 -49 1 -104 -2 -121 -7z"/>
<path d="M4354 3260 c-86 -27 -181 -126 -205 -213 -17 -64 -7 -194 20 -245 28
-54 88 -115 143 -144 37 -20 58 -23 148 -23 120 0 160 15 230 85 70 70 85 110
85 230 0 120 -15 160 -85 230 -64 64 -111 83 -215 87 -49 1 -104 -2 -121 -7z"/>
<path d="M5634 3260 c-86 -27 -181 -126 -205 -213 -17 -64 -7 -194 20 -245 28
-54 88 -115 143 -144 37 -20 58 -23 148 -23 120 0 160 15 230 85 70 70 85 110
85 230 0 120 -15 160 -85 230 -64 64 -111 83 -215 87 -49 1 -104 -2 -121 -7z"/>
<path d="M6914 3260 c-86 -27 -181 -126 -205 -213 -17 -64 -7 -194 20 -245 28
-54 88 -115 143 -144 37 -20 58 -23 148 -23 120 0 160 15 230 85 70 70 85 110
85 230 0 120 -15 160 -85 230 -64 64 -111 83 -215 87 -49 1 -104 -2 -121 -7z"/>
<path d="M8194 3260 c-86 -27 -181 -126 -205 -213 -17 -64 -7 -194 20 -245 28
-54 88 -115 143 -144 37 -20 58 -23 148 -23 120 0 160 15 230 85 70 70 85 110
85 230 0 120 -15 160 -85 230 -64 64 -111 83 -215 87 -49 1 -104 -2 -121 -7z"/>
<path d="M9474 3260 c-86 -27 -181 -126 -205 -213 -17 -64 -7 -194 20 -245 28
-54 88 -115 143 -144 37 -20 58 -23 148 -23 120 0 160 15 230 85 70 70 85 110
85 230 0 120 -15 160 -85 230 -64 64 -111 83 -215 87 -49 1 -104 -2 -121 -7z"/>
<path d="M10754 3260 c-86 -27 -181 -126 -205 -213 -17 -64 -7 -194 20 -245
28 -54 88 -115 143 -144 37 -20 58 -23 148 -23 120 0 160 15 230 85 70 70 85
110 85 230 0 120 -15 160 -85 230 -64 64 -111 83 -215 87 -49 1 -104 -2 -121
-7z"/>
<path d="M12034 3260 c-86 -27 -181 -126 -205 -213 -17 -64 -7 -194 20 -245
28 -54 88 -115 143 -144 37 -20 58 -23 148 -23 120 0 160 15 230 85 70 70 85
110 85 230 0 120 -15 160 -85 230 -64 64 -111 83 -215 87 -49 1 -104 -2 -121
-7z"/>
<path d="M514 1980 c-86 -27 -181 -126 -205 -213 -17 -64 -7 -194 20 -245 28
-54 88 -115 143 -144 37 -20 58 -23 148 -23 120 0 160 15 230 85 70 70 85 110
85 230 0 120 -15 160 -85 230 -64 64 -111 83 -215 87 -49 1 -104 -2 -121 -7z"/>
<path d="M1794 1980 c-86 -27 -181 -126 -205 -213 -17 -64 -7 -194 20 -245 28
-54 88 -115 143 -144 37 -20 58 -23 148 -23 120 0 160 15 230 85 70 70 85 110
85 230 0 120 -15 160 -85 230 -64 64 -111 83 -215 87 -49 1 -104 -2 -121 -7z"/>
<path d="M3074 1980 c-86 -27 -181 -126 -205 -213 -17 -64 -7 -194 20 -245 28
-54 88 -115 143 -144 37 -20 58 -23 148 -23 120 0 160 15 230 85 70 70 85 110
85 230 0 120 -15 160 -85 230 -64 64 -111 83 -215 87 -49 1 -104 -2 -121 -7z"/>
<path d="M4354 1980 c-86 -27 -181 -126 -205 -213 -17 -64 -7 -194 20 -245 28
-54 88 -115 143 -144 37 -20 58 -23 148 -23 120 0 160 15 230 85 70 70 85 110
85 230 0 120 -15 160 -85 230 -64 64 -111 83 -215 87 -49 1 -104 -2 -121 -7z"/>
<path d="M5634 1980 c-86 -27 -181 -126 -205 -213 -17 -64 -7 -194 20 -245 28
-54 88 -115 143 -144 37 -20 58 -23 148 -23 120 0 160 15 230 85 70 70 85 110
85 230 0 120 -15 160 -85 230 -64 64 -111 83 -215 87 -49 1 -104 -2 -121 -7z"/>
<path d="M6914 1980 c-86 -27 -181 -126 -205 -213 -17 -64 -7 -194 20 -245 28
-54 88 -115 143 -144 37 -20 58 -23 148 -23 120 0 160 15 230 85 70 70 85 110
85 230 0 120 -15 160 -85 230 -64 64 -111 83 -215 87 -49 1 -104 -2 -121 -7z"/>
<path d="M8194 1980 c-86 -27 -181 -126 -205 -213 -17 -64 -7 -194 20 -245 28
-54 88 -115 143 -144 37 -20 58 -23 148 -23 120 0 160 15 230 85 70 70 85 110
85 230 0 120 -15 160 -85 230 -64 64 -111 83 -215 87 -49 1 -104 -2 -121 -7z"/>
<path d="M9474 1980 c-86 -27 -181 -126 -205 -213 -17 -64 -7 -194 20 -245 28
-54 88 -115 143 -144 37 -20 58 -23 148 -23 120 0 160 15 230 85 70 70 85 110
85 230 0 120 -15 160 -85 230 -64 64 -111 83 -215 87 -49 1 -104 -2 -121 -7z"/>
<path d="M10754 1980 c-86 -27 -181 -126 -205 -213 -17 -64 -7 -194 20 -245
28 -54 88 -115 143 -144 37 -20 58 -23 148 -23 120 0 160 15 230 85 70 70 85
110 85 230 0 120 -15 160 -85 230 -64 64 -111 83 -215 87 -49 1 -104 -2 -121
-7z"/>
<path d="M12034 1980 c-86 -27 -181 -126 -205 -213 -17 -64 -7 -194 20 -245
28 -54 88 -115 143 -144 37 -20 58 -23 148 -23 120 0 160 15 230 85 70 70 85
110 85 230 0 120 -15 160 -85 230 -64 64 -111 83 -215 87 -49 1 -104 -2 -121
-7z"/>
<path d="M514 700 c-86 -27 -181 -126 -205 -213 -17 -64 -7 -194 20 -245 28
-54 88 -115 143 -144 63 -34 233 -34 296 0 55 29 115 89 144 144 20 37 23 58
23 148 0 120 -15 160 -85 230 -64 64 -111 83 -215 87 -49 1 -104 -2 -121 -7z"/>
<path d="M1794 700 c-86 -27 -181 -126 -205 -213 -17 -64 -7 -194 20 -245 28
-54 88 -115 143 -144 37 -20 58 -23 148 -23 120 0 160 15 230 85 70 70 85 110
85 230 0 120 -15 160 -85 230 -64 64 -111 83 -215 87 -49 1 -104 -2 -121 -7z"/>
<path d="M3074 700 c-86 -27 -181 -126 -205 -213 -17 -64 -7 -194 20 -245 28
-54 88 -115 143 -144 37 -20 58 -23 148 -23 120 0 160 15 230 85 70 70 85 110
85 230 0 120 -15 160 -85 230 -64 64 -111 83 -215 87 -49 1 -104 -2 -121 -7z"/>
<path d="M4354 700 c-86 -27 -181 -126 -205 -213 -17 -64 -7 -194 20 -245 28
-54 88 -115 143 -144 37 -20 58 -23 148 -23 120 0 160 15 230 85 70 70 85 110
85 230 0 120 -15 160 -85 230 -64 64 -111 83 -215 87 -49 1 -104 -2 -121 -7z"/>
<path d="M5634 700 c-86 -27 -181 -126 -205 -213 -17 -64 -7 -194 20 -245 28
-54 88 -115 143 -144 37 -20 58 -23 148 -23 120 0 160 15 230 85 70 70 85 110
85 230 0 120 -15 160 -85 230 -64 64 -111 83 -215 87 -49 1 -104 -2 -121 -7z"/>
<path d="M6914 700 c-86 -27 -181 -126 -205 -213 -17 -64 -7 -194 20 -245 28
-54 88 -115 143 -144 37 -20 58 -23 148 -23 120 0 160 15 230 85 70 70 85 110
85 230 0 120 -15 160 -85 230 -64 64 -111 83 -215 87 -49 1 -104 -2 -121 -7z"/>
<path d="M8194 700 c-86 -27 -181 -126 -205 -213 -17 -64 -7 -194 20 -245 28
-54 88 -115 143 -144 37 -20 58 -23 148 -23 120 0 160 15 230 85 70 70 85 110
85 230 0 120 -15 160 -85 230 -64 64 -111 83 -215 87 -49 1 -104 -2 -121 -7z"/>
<path d="M9474 700 c-86 -27 -181 -126 -205 -213 -17 -64 -7 -194 20 -245 28
-54 88 -115 143 -144 37 -20 58 -23 148 -23 120 0 160 15 230 85 70 70 85 110
85 230 0 120 -15 160 -85 230 -64 64 -111 83 -215 87 -49 1 -104 -2 -121 -7z"/>
<path d="M10754 700 c-86 -27 -181 -126 -205 -213 -17 -64 -7 -194 20 -245 28
-54 88 -115 143 -144 37 -20 58 -23 148 -23 120 0 160 15 230 85 70 70 85 110
85 230 0 120 -15 160 -85 230 -64 64 -111 83 -215 87 -49 1 -104 -2 -121 -7z"/>
<path d="M12034 700 c-86 -27 -181 -126 -205 -213 -17 -64 -7 -194 20 -245 28
-54 88 -115 143 -144 37 -20 58 -23 148 -23 120 0 160 15 230 85 70 70 85 110
85 230 0 120 -15 160 -85 230 -64 64 -111 83 -215 87 -49 1 -104 -2 -121 -7z"/>
</g>
</svg>
